<svg xmlns="http://www.w3.org/2000/svg" aria-hidden="true" focusable="false">
  <symbol id="icon-search" viewBox="0 0 24 24">
    <circle cx="11" cy="11" r="6.25" fill="none" stroke="currentColor" stroke-linecap="round" stroke-width="1.8" />
    <path d="m16 16 4 4" fill="none" stroke="currentColor" stroke-linecap="round" stroke-width="1.8" />
  </symbol>
  <symbol id="icon-calendar" viewBox="0 0 24 24">
    <rect x="3.75" y="5.25" width="16.5" height="15" rx="2" fill="none" stroke="currentColor" stroke-width="1.8" />
    <path d="M7.5 3.75v3M16.5 3.75v3M3.75 10h16.5M8 14h.01M12 14h.01M16 14h.01M8 17.5h.01M12 17.5h.01" fill="none" stroke="currentColor" stroke-linecap="round" stroke-width="2" />
  </symbol>
  <symbol id="icon-user" viewBox="0 0 24 24">
    <circle cx="12" cy="8" r="3.5" fill="none" stroke="currentColor" stroke-width="1.8" />
    <path d="M4.75 20c.55-3.5 3.38-5.5 7.25-5.5s6.7 2 7.25 5.5" fill="none" stroke="currentColor" stroke-linecap="round" stroke-width="1.8" />
  </symbol>
  <symbol id="icon-logout" viewBox="0 0 24 24">
    <path d="M10 4.5H6.75A2.75 2.75 0 0 0 4 7.25v9.5a2.75 2.75 0 0 0 2.75 2.75H10M13.25 8.25 17 12l-3.75 3.75M8.25 12H17" fill="none" stroke="currentColor" stroke-linecap="round" stroke-linejoin="round" stroke-width="1.8" />
  </symbol>
  <symbol id="icon-pin" viewBox="0 0 24 24">
    <path d="M19 10.25c0 5.25-7 10-7 10s-7-4.75-7-10a7 7 0 1 1 14 0Z" fill="none" stroke="currentColor" stroke-linejoin="round" stroke-width="1.8" />
    <circle cx="12" cy="10.25" r="2.25" fill="none" stroke="currentColor" stroke-width="1.8" />
  </symbol>
  <symbol id="icon-arrow-right" viewBox="0 0 24 24">
    <path d="M5 12h13M13 6l6 6-6 6" fill="none" stroke="currentColor" stroke-linecap="round" stroke-linejoin="round" stroke-width="1.8" />
  </symbol>
  <symbol id="icon-arrow-left" viewBox="0 0 24 24">
    <path d="M19 12H6M11 6l-6 6 6 6" fill="none" stroke="currentColor" stroke-linecap="round" stroke-linejoin="round" stroke-width="1.8" />
  </symbol>
</svg>
